<?xml version="1.0" encoding="utf-8"?><!--Generator: Adobe Illustrator 24.0.1, SVG Export Plug-In . SVG Version: 6.00 Build 0)--><svg version="1.1" id="Layer_1" xmlns="http://www.w3.org/2000/svg" xmlns:xlink="http://www.w3.org/1999/xlink" x="0px" y="0px" viewBox="0 0 100 100" enable-background="new 0 0 100 100" xml:space="preserve"><g><path fill="#F6B26A" stroke="#323334" stroke-width="3.5" stroke-linecap="round" stroke-linejoin="round" stroke-miterlimit="10" d=" M31.03,67C28.49,63.3,27,58.83,27,54c0-12.7,10.3-23,23-23s23,10.3,23,23c0,4.76-1.45,9.19-3.93,12.86"/><line fill="none" stroke="#323334" stroke-width="3.5" stroke-linecap="round" stroke-linejoin="round" stroke-miterlimit="10" x1="50" y1="13" x2="50" y2="22"/><line fill="none" stroke="#323334" stroke-width="3.5" stroke-linecap="round" stroke-linejoin="round" stroke-miterlimit="10" x1="21.01" y1="25.01" x2="27.37" y2="31.37"/><line fill="none" stroke="#323334" stroke-width="3.5" stroke-linecap="round" stroke-linejoin="round" stroke-miterlimit="10" x1="9" y1="54" x2="18" y2="54"/><line fill="none" stroke="#323334" stroke-width="3.5" stroke-linecap="round" stroke-linejoin="round" stroke-miterlimit="10" x1="91" y1="54" x2="82" y2="54"/><line fill="none" stroke="#323334" stroke-width="3.5" stroke-linecap="round" stroke-linejoin="round" stroke-miterlimit="10" x1="78.99" y1="25.01" x2="72.63" y2="31.37"/></g><g><line fill="none" stroke="#323334" stroke-width="3.5" stroke-linecap="round" stroke-linejoin="round" stroke-miterlimit="10" x1="13" y1="67" x2="87" y2="67"/><line fill="none" stroke="#323334" stroke-width="3.5" stroke-linecap="round" stroke-linejoin="round" stroke-miterlimit="10" x1="20.5" y1="74" x2="79.5" y2="74"/><line fill="none" stroke="#323334" stroke-width="3.5" stroke-linecap="round" stroke-linejoin="round" stroke-miterlimit="10" x1="28" y1="81" x2="72" y2="81"/><line fill="none" stroke="#323334" stroke-width="3.5" stroke-linecap="round" stroke-linejoin="round" stroke-miterlimit="10" x1="35.5" y1="88" x2="64.5" y2="88"/></g><metadata xmlns:d="https://loading.io/stock/">
<d:name>weather</d:name>
<d:tags>weather,nature,sky,froecast,sunset,sunrise,sea</d:tags>
<d:license>by</d:license>
<d:slug>kdcqf8</d:slug>
</metadata></svg>