<?xml version="1.0"?>
<svg version="1.1" id="圖層_1" xmlns="http://www.w3.org/2000/svg" x="0" y="0" viewBox="0 0 100 100" xml:space="preserve"><g><path fill="none" stroke="#f5e169" stroke-width="4.588" stroke-linecap="round" stroke-miterlimit="10" d="M7.5 65.7h85"/><path fill="none" stroke="#f8b26a" stroke-width="4.588" stroke-linecap="round" stroke-miterlimit="10" d="M19.3 73.3h61.4"/><path fill="none" stroke="#f47e60" stroke-width="4.588" stroke-linecap="round" stroke-miterlimit="10" d="M26.4 80.8h47.2"/><path fill="none" stroke="#e15b64" stroke-width="4.588" stroke-linecap="round" stroke-miterlimit="10" d="M40.6 88.4h18.8"/></g><g><path d="M70.3 49.4c0-11.2-9-20.2-20.2-20.2S30 38.3 30 49.4c0 3.7 1 7.2 2.8 10.2h34.9c1.6-3 2.6-6.5 2.6-10.2z" fill="#ffdc6c"/><g><path fill="none" stroke="#f8b26a" stroke-width="4.588" stroke-linecap="round" stroke-miterlimit="10" d="M50.1 11.6v11.2"/><path fill="none" stroke="#f8b26a" stroke-width="4.588" stroke-linecap="round" stroke-miterlimit="10" d="M31.3 16.7l5.5 9.6"/><path fill="none" stroke="#f8b26a" stroke-width="4.588" stroke-linecap="round" stroke-miterlimit="10" d="M17.4 30.5l9.7 5.6"/><path fill="none" stroke="#f8b26a" stroke-width="4.588" stroke-linecap="round" stroke-miterlimit="10" d="M12.4 49.4h11.1"/><path fill="none" stroke="#f8b26a" stroke-width="4.588" stroke-linecap="round" stroke-miterlimit="10" d="M87.9 49.4H76.8"/><path fill="none" stroke="#f8b26a" stroke-width="4.588" stroke-linecap="round" stroke-miterlimit="10" d="M82.9 30.5l-9.7 5.6"/><path fill="none" stroke="#f8b26a" stroke-width="4.588" stroke-linecap="round" stroke-miterlimit="10" d="M69 16.7l-5.5 9.6"/></g></g><metadata xmlns:d="https://loading.io/stock/"><d:name>sunset</d:name><d:tags>sunrise,dawn,twilight,break,morning,afternoon,sea,sunset,weather</d:tags><d:license>pro</d:license><d:slug>lqk7sj</d:slug></metadata></svg>